<?xml version="1.0"?>
<svg width="450" height="450" xmlns="http://www.w3.org/2000/svg" xmlns:svg="http://www.w3.org/2000/svg">
 <!-- Created with SVG-edit - https://github.com/SVG-Edit/svgedit-->
 <defs>
  <linearGradient id="svg_46" x1="1" x2="1" y1="0" y2="1">
   <stop offset="0" stop-color="#0ef75c"/>
   <stop offset="1" stop-color="#0a6d00" stop-opacity="0.996094"/>
  </linearGradient>
  <linearGradient id="svg_48" x1="1" x2="1" y1="1" y2="0">
   <stop offset="0" stop-color="#ad7d53" stop-opacity="0.996094"/>
   <stop offset="1" stop-color="#7f3f00" stop-opacity="0.996094"/>
  </linearGradient>
 </defs>
 <g class="layer">
  <title>Layer 1</title>
  <path d="m97.5,309.899994l19.5,-26.899994l-2,-35l-26,-38l-10,-38l24,11l6,22l21,24l0,-66l46,-18l-18,107l10,49l-28,-2l-42.5,10.899994z" fill="url(#svg_48)" id="svg_43" stroke="#7f3f00" stroke-dasharray="null" stroke-linecap="null" stroke-linejoin="null" stroke-width="5"/>
  <path d="m136.5,34.899994c0,5 -4,-39 -49,-25c-45,14 -17,36 -18.5,33.100006c-1.5,-2.899994 -17.5,-16.100006 -26.5,-1.100006c-9,15 12,21 10.5,22.100006c-1.5,1.100006 -24.5,-15.100006 -41.5,12.899994c-17,28 18,54 17.5,53.100006c-0.5,-0.899994 -16.5,5.899994 -17.5,20.899994c-1,15 24,11 23.5,10.100006c-0.5,-0.899994 -3.5,20.899994 21.5,36.899994c25,16 50,-25 46.5,-17.899994c-3.5,7.100006 -1.5,25.899994 28.5,21.899994c30,-4 25,-13 20.5,-18.899994c-4.5,-5.899994 21.5,28.899994 56.5,5.899994c35,-23 3,-36 3.5,-36.899994c0.5,-0.899994 25.5,14.899994 31.5,-21.100006c6,-36 -24,-34 -16,-35c8,-1 16,-11 9,-33c-7,-22 -42,-16 -47.5,-13.899994c-5.5,2.100006 18.5,-21.100006 -15.5,-35.100006c-34,-14 -37,16 -37,21z" fill="url(#svg_46)" id="svg_42" stroke="#007f00" stroke-dasharray="null" stroke-linecap="null" stroke-linejoin="null" stroke-width="5"/>
 </g>
</svg>